{"title":"Funny Girl 1968 {720p}{5.1}{AAC}{PcTechPaul}","uid":9292554,"size":1877510854,"categoryP":"video","categoryS":"hd___movies","magnet":"?xt=urn:btih:45b099dad915cea8b7ed6c2742a40734e5cef61c&amp;dn=Funny+Girl+1968+%7B720p%7D%7B5.1%7D%7BAAC%7D%7BPcTechPaul%7D&amp;tr=udp%3A%2F%2Ftracker.openbittorrent.com%3A80&amp;tr=udp%3A%2F%2Fopen.demonii.com%3A1337&amp;tr=udp%3A%2F%2Ftracker.coppersurfer.tk%3A6969&amp;tr=udp%3A%2F%2Fexodus.desync.com%3A6969","seeders":6,"leechers":4,"uploader":"PCTECHPAUL","files":8,"time":1386118452,"description":"**************************************************************\nFunny Girl\n**************************************************************\nEncoded By PcTechPaul\n\nWARNING: The first 4 minutes and 48 seconds of this film are audio only, this is not a mistake or flaw. Fast forward to that point if you want to get right to the movie.\n-------------------------------------------------------------------------------\nGeneral Information\n-------------------------------------------------------------------------------\nType.................: Movie\nPlatform.............: Video\nMore Info............:\n\nVideo Format.........: mp4\nVideo Bitrate........: 1280\nResolution...........: 720p\nColor................: 8 bit\nFPS..................: 23.976\nSource...............: Bluray\nOriginal Format......: NTSC\nGenre................: Biography | Comedy | Drama\nIMDb Rating..........: 7.3\nMovie Information....: http://www.imdb.com/title/tt0062994/\n\n-------------------------------------------------------------------------------\nRelease Notes\n-------------------------------------------------------------------------------\nComplete name : M:Cop Landcopland.mp4\nFormat : MPEG-4\nFormat profile : Base Media / Version 2\nCodec ID : mp42\nFile size : 1.30 GiB\nDuration : 1h 56mn\nOverall bit rate mode : Variable\nOverall bit rate : 1605 Kbps\n\nVideo\nID : 1\nFormat : AVC\nFormat/Info : Advanced Video Codec\nFormat profile : &lt;a class=&quot;__cf_email__&quot; href=&quot;/cdn-cgi/l/email-protection&quot; data-cfemail=&quot;6c24050b042c2058425c&quot;&gt;[email&amp;#160;protected]&lt;/a&gt;&lt;script cf-hash='f9e31' type=&quot;text/javascript&quot;&gt;\n/* &lt;![CDATA[ */!function(){try{var t=&quot;currentScript&quot;in document?document.currentScript:function(){for(var t=document.getElementsByTagName(&quot;script&quot;),e=t.length;e--;)if(t[e].getAttribute(&quot;cf-hash&quot;))return t[e]}();if(t&amp;&amp;t.previousSibling){var e,r,n,i,c=t.previousSibling,a=c.getAttribute(&quot;data-cfemail&quot;);if(a){for(e=&quot;&quot;,r=parseInt(a.substr(0,2),16),n=2;a.length-n;n+=2)i=parseInt(a.substr(n,2),16)^r,e+=String.fromCharCode(i);e=document.createTextNode(e),c.parentNode.replaceChild(e,c)}}}catch(u){}}();/* ]]&gt; */&lt;/script&gt;\nFormat settings, CABAC : Yes\nFormat settings, ReFrames : 8 frames\nCodec ID : avc1\nCodec ID/Info : Advanced Video Coding\nDuration : 1h 56mn\nBit rate mode : Variable\nBit rate : 1280 Kbps\nWidth : 1344 pixels\nHeight : 720 pixels\nDisplay aspect ratio : 1.85:1\nOriginal display aspect ratio : 1.85:1\nFrame rate mode : Variable\nFrame rate : 23.976 fps\nMinimum frame rate : 23.974 fps\nMaximum frame rate : 90 000.000 fps\nColor space : YUV\nChroma subsampling : 4:2:0\nBit depth : 8 bits\nScan type : Progressive\nBits/(Pixel*Frame) : 0.055\nStream size : 1.04 GiB (80%)\nWriting library : x264 core 130 r2273 b3065e6\nEncoding settings : cabac=1 / ref=8 / deblock=1:0:0 / analyse=0x3:0x113 / me=hex / subme=7 / psy=1 / psy_rd=1.20:0.15 / mixed_ref=1 / me_range=16 / chroma_me=1 / trellis=1 / 8x8dct=1 / cqm=0 / deadzone=21,11 / fast_pskip=1 / chroma_qp_offset=-3 / threads=12 / lookahead_threads=2 / sliced_threads=0 / nr=0 / decimate=1 / interlaced=0 / bluray_compat=0 / constrained_intra=0 / bframes=8 / b_pyramid=2 / b_adapt=1 / b_bias=0 / direct=1 / weightb=1 / open_gop=0 / weightp=2 / keyint=240 / keyint_min=24 / scenecut=40 / intra_refresh=0 / rc_lookahead=40 / rc=2pass / mbtree=1 / bitrate=1280 / ratetol=1.0 / qcomp=0.60 / qpmin=0 / qpmax=69 / qpstep=4 / cplxblur=20.0 / qblur=0.5 / ip_ratio=1.40 / aq=1:1.00\n\nColor primaries : BT.709\nTransfer characteristics : BT.709\nMatrix coefficients : BT.709\n\nAudio\nID : 2\nFormat : AAC\nFormat/Info : Advanced Audio Codec\nFormat profile : LC\nCodec ID : 40\nDuration : 1h 56mn\nBit rate mode : Variable\nBit rate : 320 Kbps\nMaximum bit rate : 514 Kbps\nChannel(s) : 6 channels\nChannel positions : Front: L C R, Side: L R, LFE\nSampling rate : 48.0 KHz\nCompression mode : Lossy\nDelay relative to video : 83ms\nStream size : 266 MiB (20%)\nLanguage : English ","torrent":{"xt":"urn:btih:45b099dad915cea8b7ed6c2742a40734e5cef61c","amp;dn":"Funny+Girl+1968+%7B720p%7D%7B5.1%7D%7BAAC%7D%7BPcTechPaul%7D","amp;tr":["udp%3A%2F%2Ftracker.openbittorrent.com%3A80","udp%3A%2F%2Fopen.demonii.com%3A1337","udp%3A%2F%2Ftracker.coppersurfer.tk%3A6969","udp%3A%2F%2Fexodus.desync.com%3A6969"],"infoHash":"45b099dad915cea8b7ed6c2742a40734e5cef61c","infoHashBuffer":{"type":"Buffer","data":[69,176,153,218,217,21,206,168,183,237,108,39,66,164,7,52,229,206,246,28]},"announce":[],"urlList":[]}}